<svg width="33" height="33" viewBox="0 0 33 33" fill="none" xmlns="http://www.w3.org/2000/svg">
<path d="M26.82 28.5H12.1533L14.3133 19.1667H28.98L26.82 28.5Z" stroke="#181818" stroke-width="2" stroke-linecap="round" stroke-linejoin="round"/>
<path d="M20.5666 24.5C20.9348 24.5 21.2333 24.2015 21.2333 23.8333C21.2333 23.4651 20.9348 23.1667 20.5666 23.1667C20.1985 23.1667 19.9 23.4651 19.9 23.8333C19.9 24.2015 20.1985 24.5 20.5666 24.5Z" fill="#181818" stroke="#181818" stroke-width="1.33333" stroke-linecap="round" stroke-linejoin="round"/>
<path d="M13.5533 28.5H8.96665" stroke="#181818" stroke-width="2" stroke-linecap="round" stroke-linejoin="round"/>
<path d="M14.3666 11.78C16.377 11.78 18.0066 10.1503 18.0066 8.14C18.0066 6.12968 16.377 4.5 14.3666 4.5C12.3563 4.5 10.7266 6.12968 10.7266 8.14C10.7266 10.1503 12.3563 11.78 14.3666 11.78Z" stroke="#181818" stroke-width="2" stroke-linecap="round" stroke-linejoin="round"/>
<path d="M4.97998 25.1V23.9C4.97998 21.4246 5.96331 19.0507 7.71365 17.3003C9.46399 15.55 11.838 14.5667 14.3133 14.5667H14.4333C16.2269 14.5642 17.9825 15.083 19.4866 16.06" stroke="#181818" stroke-width="2" stroke-linecap="round" stroke-linejoin="round"/>
</svg>
