<svg width="33" height="33" viewBox="0 0 33 33" fill="none" xmlns="http://www.w3.org/2000/svg">
<path d="M25.9066 28.5H16.7066C16.4232 28.5236 16.1378 28.4903 15.8674 28.402C15.597 28.3137 15.347 28.1722 15.132 27.9859C14.9171 27.7995 14.7416 27.572 14.6159 27.3169C14.4902 27.0617 14.4168 26.784 14.4 26.5V21.1667C14.4168 20.8827 14.4902 20.605 14.6159 20.3498C14.7416 20.0946 14.9171 19.8672 15.132 19.6808C15.347 19.4945 15.597 19.353 15.8674 19.2647C16.1378 19.1764 16.4232 19.1431 16.7066 19.1667H25.9066C26.1894 19.1431 26.4741 19.1765 26.7437 19.2649C27.0134 19.3534 27.2625 19.495 27.4764 19.6816C27.6902 19.8681 27.8645 20.0956 27.9888 20.3507C28.1131 20.6058 28.1849 20.8833 28.2 21.1667V26.5C28.1459 27.0634 27.8781 27.5846 27.4515 27.9566C27.025 28.3286 26.4721 28.523 25.9066 28.5Z" stroke="#181818" stroke-width="2" stroke-linecap="round" stroke-linejoin="round"/>
<path d="M22.7333 16.5H19.8666C19.7441 16.4867 19.6201 16.4997 19.503 16.5381C19.3859 16.5765 19.2783 16.6394 19.1875 16.7227C19.0966 16.806 19.0246 16.9077 18.9762 17.0211C18.9277 17.1344 18.904 17.2568 18.9066 17.38V19.1667H23.6933V17.38C23.6959 17.2568 23.6722 17.1344 23.6238 17.0211C23.5754 16.9077 23.5033 16.806 23.4125 16.7227C23.3216 16.6394 23.214 16.5765 23.0969 16.5381C22.9798 16.4997 22.8558 16.4867 22.7333 16.5Z" stroke="#181818" stroke-width="2" stroke-linecap="round" stroke-linejoin="round"/>
<path d="M14.4 23.5533H28.2" stroke="#181818" stroke-width="2" stroke-linecap="round" stroke-linejoin="round"/>
<path d="M13.5867 11.78C15.597 11.78 17.2267 10.1503 17.2267 8.14C17.2267 6.12968 15.597 4.5 13.5867 4.5C11.5763 4.5 9.94666 6.12968 9.94666 8.14C9.94666 10.1503 11.5763 11.78 13.5867 11.78Z" stroke="#181818" stroke-width="2" stroke-linecap="round" stroke-linejoin="round"/>
<path d="M4.19998 25.1V23.9C4.19998 21.4246 5.18331 19.0507 6.93365 17.3003C8.68399 15.55 11.058 14.5667 13.5333 14.5667H13.6533C14.5151 14.5638 15.3728 14.685 16.2 14.9267" stroke="#181818" stroke-width="2" stroke-linecap="round" stroke-linejoin="round"/>
</svg>
