<svg width="17" height="17" viewBox="0 0 17 17" fill="none" xmlns="http://www.w3.org/2000/svg">
<path d="M12.0099 11.93L16.0799 16M7.48661 13.8142C8.328 13.8142 9.16115 13.6484 9.9385 13.3265C10.7158 13.0045 11.4222 12.5325 12.0171 11.9376C12.6121 11.3426 13.084 10.6363 13.406 9.85897C13.728 9.08162 13.8937 8.24847 13.8937 7.40708C13.8937 6.56569 13.728 5.73254 13.406 4.9552C13.084 4.17786 12.6121 3.47154 12.0171 2.87659C11.4222 2.28164 10.7158 1.8097 9.9385 1.48771C9.16115 1.16572 8.328 1 7.48661 1C5.78735 1 4.15768 1.67503 2.95612 2.87659C1.75456 4.07815 1.07953 5.70782 1.07953 7.40708C1.07953 9.10635 1.75456 10.736 2.95612 11.9376C4.15768 13.1391 5.78735 13.8142 7.48661 13.8142Z" stroke="#181818" stroke-width="1.25" stroke-miterlimit="10" stroke-linecap="round" stroke-linejoin="round"/>
</svg>
